<svg width="264px" height="280px" viewBox="0 0 264 280" version="1.1" xmlns="http://www.w3.org/2000/svg" xmlns:xlink="http://www.w3.org/1999/xlink"><desc>Created with getavataaars.com</desc><defs><circle id="react-path-1" cx="120" cy="120" r="120"></circle><path d="M12,160 C12,226.27417 65.72583,280 132,280 C198.27417,280 252,226.27417 252,160 L264,160 L264,-1.42108547e-14 L-3.19744231e-14,-1.42108547e-14 L-3.19744231e-14,160 L12,160 Z" id="react-path-2"></path><path d="M124,144.610951 L124,163 L128,163 L128,163 C167.764502,163 200,195.235498 200,235 L200,244 L0,244 L0,235 C-4.86974701e-15,195.235498 32.235498,163 72,163 L72,163 L76,163 L76,144.610951 C58.7626345,136.422372 46.3722246,119.687011 44.3051388,99.8812385 C38.4803105,99.0577866 34,94.0521096 34,88 L34,74 C34,68.0540074 38.3245733,63.1180731 44,62.1659169 L44,56 L44,56 C44,25.072054 69.072054,5.68137151e-15 100,0 L100,0 L100,0 C130.927946,-5.68137151e-15 156,25.072054 156,56 L156,62.1659169 C161.675427,63.1180731 166,68.0540074 166,74 L166,88 C166,94.0521096 161.51969,99.0577866 155.694861,99.8812385 C153.627775,119.687011 141.237365,136.422372 124,144.610951 Z" id="react-path-3"></path></defs><g id="Avataaar" stroke="none" stroke-width="1" fill="none" fill-rule="evenodd"><g transform="translate(-825.000000, -1100.000000)" id="Avataaar/Circle"><g transform="translate(825.000000, 1100.000000)"><g id="Circle" stroke-width="1" fill-rule="evenodd" transform="translate(12.000000, 40.000000)"><mask id="react-mask-4" fill="white"><use xlink:href="#react-path-1"></use></mask><use id="Circle-Background" fill="#E6E6E6" xlink:href="#react-path-1"></use><g id="Color/Palette/Blue-01" mask="url(#react-mask-4)" fill="#65C9FF"><rect id="🖍Color" x="0" y="0" width="240" height="240"></rect></g></g><mask id="react-mask-5" fill="white"><use xlink:href="#react-path-2"></use></mask><g id="Mask"></g><g id="Avataaar" stroke-width="1" fill-rule="evenodd" mask="url(#react-mask-5)"><g id="Body" transform="translate(32.000000, 36.000000)"><mask id="react-mask-6" fill="white"><use xlink:href="#react-path-3"></use></mask><use fill="#D0C6AC" xlink:href="#react-path-3"></use><g id="Skin/👶🏽-03-Brown" mask="url(#react-mask-6)" fill="#FFDBB4"><g transform="translate(0.000000, 0.000000)" id="Color"><rect x="0" y="0" width="264" height="280"></rect></g></g><path d="M156,79 L156,102 C156,132.927946 130.927946,158 100,158 C69.072054,158 44,132.927946 44,102 L44,79 L44,94 C44,124.927946 69.072054,150 100,150 C130.927946,150 156,124.927946 156,94 L156,79 Z" id="Neck-Shadow" fill-opacity="0.100000001" fill="#000000" mask="url(#react-mask-6)"></path></g><g id="Clothing/Graphic-Shirt" transform="translate(0.000000, 170.000000)"><defs><path d="M165.624032,29.2681342 C202.760022,32.1373245 232,63.1798426 232,101.051724 L232,110 L32,110 L32,101.051724 C32,62.8348009 61.7752018,31.5722494 99.3929298,29.1967444 C99.1342224,30.2735458 99,31.3767131 99,32.5 C99,44.3741221 113.998461,54 132.5,54 C151.001539,54 166,44.3741221 166,32.5 C166,31.4015235 165.871641,30.3222877 165.624025,29.2681336 Z" id="react-path-2077"></path></defs><mask id="react-mask-2078" fill="white"><use xlink:href="#react-path-2077"></use></mask><use id="Clothes" fill="#E6E6E6" fill-rule="evenodd" xlink:href="#react-path-2077"></use><g id="Color/Palette/Gray-01" mask="url(#react-mask-2078)" fill-rule="evenodd" fill="#B1E2FF"><rect id="🖍Color" x="0" y="0" width="264" height="110"></rect></g><g id="Clothing/Graphic/Deer" mask="url(#react-mask-2078)" fill-rule="evenodd" fill="#FFFFFF"><g transform="translate(77.000000, 58.000000)" id="oh,-deer!"><path d="M76.9598206,16.2351328 C77.3545748,17.6603319 74.7317873,18.9054413 73.8540158,19.6535687 C72.3474717,20.9370645 70.7886986,22.2879408 69.0287021,23.2010483 C68.2808959,23.5889965 67.4755973,23.9042554 66.6674645,24.1357992 C65.420446,24.4927115 65.5625576,24.2427912 65.0864232,25.3008688 C64.2491394,27.1617948 64.0321258,29.6352706 63.2754123,31.6133978 C61.5708838,36.0670427 57.5083567,46.4138243 51.0084754,41.8719723 C48.9403681,40.4271716 47.8107637,37.6249608 46.6471497,35.4361165 C45.312678,32.9242543 44.0348889,29.927661 43.2668389,27.1858884 C42.8923285,25.8501217 43.1299908,25.3952014 42.1376394,24.7708091 C41.514535,24.3787772 40.4582132,24.2775023 39.7537287,23.9908291 C38.2544724,23.3807295 36.9414591,22.5546042 35.6656945,21.5602318 C34.4279881,20.5948534 29.5561137,16.6096049 33.5340216,15.8696448 C35.3592032,15.5298839 37.7512114,15.6560692 39.6006855,15.7495851 C41.6283052,15.8520851 43.6741443,16.3196647 45.4774626,17.2854514 C47.3184343,18.2720648 46.7783296,17.9862083 48.6865108,17.4345052 C45.3653119,16.3090472 42.0384447,14.4370952 39.8031236,11.6536693 C38.5961879,10.1508806 35.8037572,4.00047299 37.9022302,2.58875006 C40.4225841,0.893212425 40.6331197,7.93508406 41.3416529,9.15569148 C42.9344356,11.8995059 45.8495437,12.9351233 48.3844732,14.454655 C46.6435058,12.7868862 45.3446632,10.9496454 44.7106272,8.58683697 C44.4357163,7.56224546 43.6846711,5.0981621 44.1919809,4.10133952 C44.7207491,3.06123008 45.9641237,2.99507471 46.6499838,3.88041325 C47.2678248,4.67754462 47.1123524,6.5115185 47.3241026,7.47240483 C47.6739156,9.06095045 48.2451958,10.282783 49.3059712,11.5127828 C50.8113007,13.2585495 52.7227209,14.6866071 54.9750468,15.2395353 C60.1015883,16.4977125 61.8947847,11.1317769 62.5826693,6.99461605 C62.7510977,5.98186717 62.5033135,4.30184746 63.6329179,3.81589134 C65.0001846,3.22743524 65.5293577,4.56156854 65.5690356,5.59718594 C65.6564888,7.91058207 64.5127138,11.4535697 63.4029483,13.4419061 C66.1929497,11.7100238 68.4064075,8.96375923 69.3015886,5.75399867 C69.6327773,4.56646894 69.3639395,1.9182123 70.4757294,1.25134983 C72.0154733,0.327216479 72.5049686,2.16772422 72.45112,3.27317229 C72.1324825,9.78825116 67.1525061,15.7132405 60.9627599,17.341806 C62.4810453,18.1005509 62.2814414,18.2716565 63.8114683,17.3650829 C64.6961227,16.840332 65.656084,16.4352324 66.6375037,16.1342663 C68.1076089,15.6834297 69.6931038,15.453111 71.2182722,15.3183501 C72.4377591,15.2105413 76.4921887,14.5012087 76.9598206,16.2351328 Z M58.8595294,24.6214062 C59.7193936,22.4825816 56.3639386,22.4048657 56.0375022,24.7163015 C55.622102,27.6609177 58.7932497,27.8924294 58.8595294,24.6214062 Z M56.9297708,33.6367531 C57.5886752,31.4414328 53.4036129,31.5246305 53.0344702,33.4664333 C52.5980925,35.7582944 56.4400387,35.1974948 56.9297708,33.6367531 Z M51.7024587,27 C54.0260737,27 54.9736078,23.9354052 52.6986912,23.1385385 C49.8083182,22.1255453 48.8835101,27 51.7024587,27 Z"></path></g></g></g><g id="Face" transform="translate(76.000000, 82.000000)" fill="#000000"><g id="Mouth/Serious" transform="translate(2.000000, 52.000000)" fill="#000000" fill-opacity="0.699999988"><rect id="Why-so-serious?" x="42" y="18" width="24" height="6" rx="3"></rect></g><g id="Nose/Default" transform="translate(28.000000, 40.000000)" fill-opacity="0.16"><path d="M16,8 C16,12.418278 21.372583,16 28,16 L28,16 C34.627417,16 40,12.418278 40,8" id="Nose"></path></g><g id="Eyes/Eye-Roll-🙄" transform="translate(0.000000, 8.000000)"><circle id="Eyeball" fill="#FFFFFF" cx="30" cy="22" r="14"></circle><circle id="The-white-stuff" fill="#FFFFFF" cx="82" cy="22" r="14"></circle><circle id="Eye" fill-opacity="0.699999988" fill="#000000" cx="30" cy="14" r="6"></circle><circle id="Eye" fill-opacity="0.699999988" fill="#000000" cx="82" cy="14" r="6"></circle></g><g id="Eyebrow/Natural/Flat-Natural" fill-opacity="0.599999964"><path d="M38.5686071,10.7022978 C33.5865557,11.2384494 28.6553385,11.1338998 23.6562444,11.1010606 C19.8231061,11.0762636 15.91974,10.6892291 12.3246118,12.5091287 C11.6361455,12.8572921 7.8767609,14.9449324 8.00311195,16.0108688 C8.10389896,16.8633498 12.0128479,18.0636592 12.7165939,18.2838164 C16.4280826,19.4452548 19.9241869,18.9282036 23.6870976,18.5703225 C28.3024371,18.1316834 32.9139567,18.1745756 37.5322346,17.8739956 C40.6422336,17.6719334 45.4224171,16.9769469 46.8293214,13.1484895 C47.2530382,11.9954284 46.8152171,9.73353891 46.3074622,8.50642195 C46.1050066,8.01751871 45.5634602,7.84963624 45.1688335,8.14921095 C43.7560524,9.22218432 40.9851444,10.4425994 38.5686071,10.7022978" id="Fill-10" transform="translate(27.500000, 13.500000) rotate(2.000000) translate(-27.500000, -13.500000) "></path><path d="M95.5686071,10.7022978 C90.5865557,11.2384494 85.6553385,11.1338998 80.6562444,11.1010606 C76.8231061,11.0762636 72.91974,10.6892291 69.3246118,12.5091287 C68.6361455,12.8572921 64.8767609,14.9449324 65.003112,16.0108688 C65.103899,16.8633498 69.0128479,18.0636592 69.7165939,18.2838164 C73.4280826,19.4452548 76.9241869,18.9282036 80.6870976,18.5703225 C85.3024371,18.1316834 89.9139567,18.1745756 94.5322346,17.8739956 C97.6422336,17.6719334 102.422417,16.9769469 103.829321,13.1484895 C104.253038,11.9954284 103.815217,9.73353891 103.307462,8.50642195 C103.105007,8.01751871 102.56346,7.84963624 102.168833,8.14921095 C100.756052,9.22218432 97.9851444,10.4425994 95.5686071,10.7022978" id="Fill-10" transform="translate(84.500000, 13.500000) scale(-1, 1) rotate(2.000000) translate(-84.500000, -13.500000) "></path></g></g><g id="Top"><defs><rect id="react-path-2122" x="0" y="0" width="264" height="280"></rect><path d="M129.659138,38.3566287 C132.459581,45.3577056 134,52.9989608 134,61 L134,69 L2,69 L2,61 C2,52.9748603 3.54971254,45.3116754 6.36620203,38.2933809 C-0.0371821146,24.8304767 -1.28053094,13.7727805 2.63615554,5.12029235 C10.141056,2.84355825 18.8342301,4.64979084 28.7156778,10.5389901 C38.4862647,3.88774159 50.289117,-4.77047603e-15 63,-7.10542736e-15 L73,-7.10542736e-15 C85.7221104,-9.44244112e-15 97.5345852,3.89461262 107.310208,10.5566215 C117.203883,4.65339747 125.906912,2.84128775 133.419297,5.12029235 C137.342115,13.7863263 136.088729,24.8651051 129.659138,38.3566287 Z" id="react-path-2118"></path><path d="M28.7156857,10.5389848 C18.758718,17.3171083 10.9122881,26.9651756 6.36620203,38.2933809 C-0.0371821146,24.8304767 -1.28053094,13.7727805 2.63615554,5.12029235 C10.1410556,2.84355836 18.8342292,4.64979066 28.7156763,10.5389892 Z M129.659138,38.3566287 C125.120833,27.0109143 117.273404,17.34646 107.310208,10.5566215 C117.203883,4.65339747 125.906912,2.84128775 133.419297,5.12029235 C137.342115,13.7863263 136.088729,24.8651051 129.659138,38.3566287 Z" id="react-path-2119"></path><path d="M21.8615933,15.9591438 C17.3889306,20.0465694 13.5271638,24.7913314 10.4291788,30.040544 C7.50356643,21.9322189 7.00287124,16.3214118 8.92709323,13.2081228 C11.5782173,12.0615989 15.8897174,12.9786059 21.8615933,15.9591438 Z M125.352616,29.6737564 C122.278044,24.5465519 118.471613,19.9084198 114.077736,15.903773 C119.880509,13.0520429 124.083178,12.1889392 126.68574,13.3144617 C128.572308,16.3668294 128.127934,21.8199276 125.352616,29.6737564 Z" id="react-path-2120"></path><filter x="-0.7%" y="-1.7%" width="101.4%" height="106.8%" filterUnits="objectBoundingBox" id="react-filter-2113"><feOffset dx="0" dy="2" in="SourceAlpha" result="shadowOffsetOuter1"></feOffset><feColorMatrix values="0 0 0 0 0   0 0 0 0 0   0 0 0 0 0  0 0 0 0.1 0" type="matrix" in="shadowOffsetOuter1"></feColorMatrix></filter><path d="M67.2846026,61.4514246 C83.229708,49.8171415 105.159178,44 133.073012,44 C160.985408,44 182.871592,49.8165424 198.731564,61.4496271 L198.731562,61.4496305 C200.786183,62.956669 202.000006,65.3523289 202.000006,67.900394 L202.000004,98.3697692 C202.000004,100.578907 200.209144,102.369768 198.000006,102.369768 C197.244444,102.369768 196.504332,102.155773 195.865355,101.752558 C179.223261,91.2508526 158.536251,86 133.804323,86 C108.883259,86 87.640395,91.3314713 70.0757313,101.994414 L70.0757317,101.994414 C68.1873241,103.140806 65.7271332,102.539283 64.5807417,100.650875 C64.2008775,100.02514 64.0000054,99.3071624 64.0000054,98.5751499 L64,67.914014 C64,65.358892 65.2205159,62.9574773 67.2846026,61.4514246 Z" id="react-path-2121"></path></defs><mask id="react-mask-2114" fill="white"><use xlink:href="#react-path-2122"></use></mask><g id="Mask"></g><g id="Top/Accessories/Winter-Hat-4" transform="translate(-1.000000, 0.000000)"><g id="hat" stroke-width="1" fill-rule="evenodd" transform="translate(65.000000, 4.000000)"><mask id="react-mask-2115" fill="white"><use xlink:href="#react-path-2118"></use></mask><use id="hat-mask" fill="#D8D8D8" xlink:href="#react-path-2118"></use><g id="Color/Palette/Gray-01" mask="url(#react-mask-2115)" fill-rule="evenodd" fill="#262E33"><rect id="🖍Color" x="0" y="0" width="264" height="280"></rect></g><mask id="react-mask-2116" fill="white"><use xlink:href="#react-path-2119"></use></mask><use id="shadow" fill-opacity="0.24" fill="#000000" xlink:href="#react-path-2119"></use><mask id="react-mask-2117" fill="white"><use xlink:href="#react-path-2120"></use></mask><use id="light" fill-opacity="0.300000012" fill="#FFFFFF" xlink:href="#react-path-2120"></use></g><g id="hat-front"><use fill="black" fill-opacity="1" filter="url(#react-path-2121)" xlink:href="#react-path-2121"></use><use fill="#F4F4F4" fill-rule="evenodd" xlink:href="#react-path-2121"></use></g><g id="Facial-Hair/Beard-Light" transform="translate(49.000000, 72.000000)"><defs><path d="M101.428403,98.1685688 C98.9148372,100.462621 96.23722,101.494309 92.8529444,100.772863 C92.2705777,100.648833 89.8963391,96.2345713 83.9998344,96.2345713 C78.1033297,96.2345713 75.7294253,100.648833 75.1467245,100.772863 C71.7624488,101.494309 69.0848316,100.462621 66.5712661,98.1685688 C61.8461772,93.855604 57.9166219,87.9081858 60.2778299,81.4191814 C61.5083844,78.0369425 63.5097479,74.3237342 67.1506257,73.2459109 C71.0384163,72.0955419 76.4968931,73.2439051 80.4147542,72.4582708 C81.6840664,72.2035248 83.0706538,71.7508657 83.9998344,71 C84.929015,71.7508657 86.3159365,72.2035248 87.5845805,72.4582708 C91.5027758,73.2439051 96.9612525,72.0955419 100.849043,73.2459109 C104.489921,74.3237342 106.491284,78.0369425 107.722173,81.4191814 C110.083381,87.9081858 106.153826,93.855604 101.428403,98.1685688 M140.081033,26 C136.670693,34.4002532 137.987774,44.8580348 137.356666,53.6758724 C136.844038,60.8431942 135.33712,71.5857526 128.972858,76.214531 C125.718361,78.5816138 119.79436,82.5598986 115.54187,81.4501943 C112.614539,80.6863848 112.302182,72.290096 108.455284,69.1469801 C104.09172,65.5823153 98.6429854,64.0160432 93.1491481,64.2578722 C90.7785381,64.3622683 85.9841367,64.3374908 83.9999331,66.1604584 C82.0157295,64.3374908 77.2216647,64.3622683 74.8510547,64.2578722 C69.3568808,64.0160432 63.9081467,65.5823153 59.5445817,69.1469801 C55.6976839,72.290096 55.3856641,80.6863848 52.4583326,81.4501943 C48.2058427,82.5598986 42.2818421,78.5816138 39.0270077,76.214531 C32.6624096,71.5857526 31.1561652,60.8431942 30.642864,53.6758724 C30.0120926,44.8580348 31.3291729,34.4002532 27.9188335,26 C26.2597768,26 27.3540339,42.1288693 27.3540339,42.1288693 L27.3540339,62.4851205 C27.3856735,77.7732046 36.935095,100.655445 58.1080116,109.393004 C63.2861266,111.52982 75.0153111,115 83.9999331,115 C92.9845551,115 104.71374,111.860188 109.891855,109.723371 C131.064771,100.985813 140.614193,77.7732046 140.646169,62.4851205 L140.646169,42.1288693 C140.646169,42.1288693 141.740089,26 140.081033,26" id="react-path-2124"></path></defs><mask id="react-mask-2123" fill="white"><use xlink:href="#react-path-2124"></use></mask><use id="Lite-Beard" fill="#331B0C" fill-rule="evenodd" xlink:href="#react-path-2124"></use><g id="Color/Hair/Brown" mask="url(#react-mask-2123)" fill="#ECDCBF"><g transform="translate(-32.000000, 0.000000)" id="Color"><rect x="0" y="0" width="264" height="244"></rect></g></g></g></g></g></g></g></g></g></svg>